<?xml version="1.0" encoding="iso-8859-1"?>
<!-- Uploaded to: SVG Repo, www.svgrepo.com, Generator: SVG Repo Mixer Tools -->
<!DOCTYPE svg PUBLIC "-//W3C//DTD SVG 1.1//EN" "http://www.w3.org/Graphics/SVG/1.1/DTD/svg11.dtd">
<svg fill="#000000" height="800px" width="800px" version="1.1" id="Capa_1" xmlns="http://www.w3.org/2000/svg" xmlns:xlink="http://www.w3.org/1999/xlink" 
	 viewBox="0 0 434.738 434.738" xml:space="preserve">
<g>
	<g>
		<g>
			<path d="M217.369,221.041c-22.374,0-40.577-18.203-40.577-40.577s18.203-40.576,40.577-40.576
				c22.374,0,40.576,18.203,40.576,40.576S239.743,221.041,217.369,221.041z M217.369,149.888c-16.86,0-30.577,13.716-30.577,30.576
				s13.717,30.577,30.577,30.577c16.86,0,30.576-13.717,30.576-30.577S234.229,149.888,217.369,149.888z"/>
		</g>
		<g>
			<path d="M217.369,259.714c-9.047,0-16.408-7.361-16.408-16.408c0-9.047,7.36-16.406,16.408-16.406
				c9.047,0,16.407,7.359,16.407,16.406C233.776,252.353,226.416,259.714,217.369,259.714z M217.369,236.9
				c-3.533,0-6.408,2.873-6.408,6.406c0,3.533,2.875,6.408,6.408,6.408c3.533,0,6.407-2.875,6.407-6.408
				C223.776,239.773,220.902,236.9,217.369,236.9z"/>
		</g>
		<path d="M362.743,136.735L232.116,6.108C228.177,2.169,222.94,0,217.369,0c-5.57,0-10.808,2.169-14.748,6.108L71.995,136.735
			c-3.939,3.938-6.108,9.175-6.108,14.745s2.169,10.807,6.108,14.746c3.938,3.938,9.175,6.107,14.746,6.107
			c5.57,0,10.807-2.169,14.746-6.107l8.185-8.185v174.191h-8.927c-2.761,0-5,2.238-5,5v23.517c0,2.762,2.239,5,5,5h98.04v63.988
			c0,2.76,2.239,5,5,5h27.171c2.761,0,5-2.24,5-5V365.75h98.04c2.761,0,5-2.238,5-5v-23.517c0-2.762-2.239-5-5-5h-8.927V158.041
			l8.186,8.186c3.939,3.938,9.176,6.107,14.746,6.107c5.57,0,10.807-2.169,14.745-6.107c3.939-3.939,6.108-9.176,6.108-14.746
			S366.682,140.673,362.743,136.735z M225.954,424.738h-17.171V365.75h17.171V424.738z M328.994,342.232v13.517H105.743v-13.517
			H328.994z M119.671,332.232V148.042l97.698-97.699l97.698,97.698v184.191H119.671z M355.672,159.156
			c-2.049,2.049-4.774,3.178-7.673,3.178s-5.625-1.129-7.674-3.179l-119.42-119.42c-0.938-0.938-2.209-1.464-3.536-1.464
			s-2.598,0.527-3.536,1.464L94.414,159.155c-2.05,2.05-4.775,3.179-7.674,3.179c-2.899,0-5.624-1.129-7.674-3.179
			c-2.05-2.05-3.179-4.775-3.179-7.675c0-2.899,1.129-5.624,3.179-7.674L209.692,13.179c2.051-2.05,4.777-3.179,7.677-3.179
			s5.625,1.129,7.675,3.179l130.628,130.628c2.05,2.05,3.179,4.775,3.179,7.674C358.851,154.38,357.722,157.106,355.672,159.156z"/>
	</g>
</g>
</svg>